# xmcd
#
# Track frame offsets:
#	150
#	14372
#	37030
#	54420
#	73623
#	92429
#	108004
#	125306
#	145356
#	161484
#
# Disc length: 2445 seconds
#
# Revision: 1
# Processed by: cddbd v1.5.2PL0 Copyright (c) Steve Scherf et al.
# Submitted via: audiograbber 1.83.01
#
DISCID=7c098b0a
DTITLE=Big Shanty - Ride With The Wind
DYEAR=2006
DGENRE=Blues
TTITLE0=Born Up In Trouble
TTITLE1=Killing Fields
TTITLE2=New Messiah
TTITLE3=She Got A Hold On Me
TTITLE4=Gone Downtown
TTITLE5=Ride With The Wind
TTITLE6=Whisky Woman
TTITLE7=Know What I'm Sayin'
TTITLE8=King Bee
TTITLE9=Living On The Edge of Time
EXTD=
EXTT0=
EXTT1=
EXTT2=
EXTT3=
EXTT4=
EXTT5=
EXTT6=
EXTT7=
EXTT8=
EXTT9=
PLAYORDER=
